<?xml version="1.0" encoding="iso-8859-1"?>
<!-- Uploaded to: SVG Repo, www.svgrepo.com, Generator: SVG Repo Mixer Tools -->
<svg height="800px" width="800px" version="1.1" id="Layer_1" xmlns="http://www.w3.org/2000/svg" xmlns:xlink="http://www.w3.org/1999/xlink" 
	 viewBox="0 0 500.586 500.586" xml:space="preserve">
<path style="fill:#F2F2F2;" d="M187.037,490.619h127.478c65.829,0,123.298-42.841,143.151-104.49l33.437-106.58H10.449
	l33.437,106.58C63.739,447.779,122.253,490.619,187.037,490.619z"/>
<polygon style="fill:#E2E2E2;" points="478.563,319.256 491.102,279.55 10.449,279.55 22.988,319.256 "/>
<g>
	<path style="fill:#F2F2F2;" d="M448.261,186.554L127.478,85.199c-6.269-2.09-12.539,1.045-14.629,7.314
		c-2.09,6.269,1.045,12.539,7.314,15.673L433.633,228.35c11.494,4.18,25.078-2.09,29.257-13.584
		C467.069,203.272,460.8,189.689,448.261,186.554z"/>
	<path style="fill:#F2F2F2;" d="M467.069,31.909c-4.18-11.494-17.763-17.763-29.257-13.584L125.388,142.668
		c-6.269,2.09-9.404,9.404-7.314,15.673c2.09,6.269,8.359,9.404,14.629,7.314l319.739-104.49
		C464.98,56.987,471.249,43.403,467.069,31.909z"/>
</g>
<g>
	<path style="fill:#FFD15C;" d="M156.735,239.844c-5.225-5.225-8.359-12.539-8.359-20.898s3.135-15.673,8.359-20.898
		c5.224-5.224,5.224-14.629,0-20.898c-11.494-11.494-11.494-30.302,0-41.796c5.224-5.224,5.224-14.629,0-20.898
		c-5.225-5.224-8.359-12.539-8.359-20.898c0-7.314,3.135-15.673,8.359-20.898c5.224-5.224,5.224-14.629,0-20.898
		c-11.494-11.494-11.494-30.302,0-41.796l10.449,10.449c-5.224,5.224-5.224,14.629,0,20.898c11.494,11.494,11.494,30.302,0,41.796
		c-3.135,3.135-4.18,6.269-4.18,10.449s1.045,7.314,4.18,10.449c11.494,11.494,11.494,30.302,0,41.796
		c-5.224,5.224-5.224,14.629,0,20.898c11.494,11.494,11.494,30.302,0,41.796c-3.135,3.135-4.18,6.269-4.18,10.449
		c0,4.18,1.045,7.314,4.18,10.449L156.735,239.844z"/>
	<path style="fill:#FFD15C;" d="M193.306,239.844c-5.224-5.225-8.359-12.539-8.359-20.898s3.135-15.673,8.359-20.898
		s5.224-14.629,0-20.898c-11.494-11.494-11.494-30.302,0-41.796c5.224-5.224,5.224-14.629,0-20.898
		c-5.224-5.224-8.359-12.539-8.359-20.898c0-7.314,3.135-15.673,8.359-20.898s5.224-14.629,0-20.898
		c-11.494-11.494-11.494-30.302,0-41.796l10.449,10.449c-5.224,5.224-5.224,14.629,0,20.898c11.494,11.494,11.494,30.302,0,41.796
		c-3.135,3.135-4.18,6.269-4.18,10.449s1.045,7.314,4.18,10.449c11.494,11.494,11.494,30.302,0,41.796
		c-5.224,5.224-5.224,14.629,0,20.898c11.494,11.494,11.494,30.302,0,41.796c-3.135,3.135-4.18,6.269-4.18,10.449
		c0,4.18,1.045,7.314,4.18,10.449L193.306,239.844z"/>
	<path style="fill:#FFD15C;" d="M229.878,239.844c-5.224-5.225-8.359-12.539-8.359-20.898s3.135-15.673,8.359-20.898
		s5.224-14.629,0-20.898c-11.494-11.494-11.494-30.302,0-41.796c5.224-5.224,5.224-14.629,0-20.898
		c-5.224-5.224-8.359-12.539-8.359-20.898c0-7.314,3.135-15.673,8.359-20.898s5.224-14.629,0-20.898
		c-11.494-11.494-11.494-30.302,0-41.796l10.449,10.449c-5.224,5.224-5.224,14.629,0,20.898c11.494,11.494,11.494,30.302,0,41.796
		c-3.135,3.135-4.18,6.269-4.18,10.449s1.045,7.314,4.18,10.449c11.494,11.494,11.494,30.302,0,41.796
		c-5.224,5.224-5.224,14.629,0,20.898c11.494,11.494,11.494,30.302,0,41.796c-3.135,3.135-4.18,6.269-4.18,10.449
		c0,4.18,1.045,7.314,4.18,10.449L229.878,239.844z"/>
</g>
<path style="fill:#40596B;" d="M481.698,258.652H19.853C8.359,258.652,0,268.056,0,278.505c0,11.494,9.404,19.853,19.853,19.853
	h460.8c11.494,0,19.853-9.404,19.853-19.853C501.551,268.056,492.147,258.652,481.698,258.652z"/>
</svg>